<svg version="1.1" id="Layer_1" xmlns="http://www.w3.org/2000/svg" xmlns:xlink="http://www.w3.org/1999/xlink" x="0px" y="0px"
	 width="100%" viewBox="0 0 496 496" enable-background="new 0 0 496 496" xml:space="preserve">
<path fill="#000000" opacity="1.000000" stroke="none" 
	d="
M170.823792,120.668396 
	C174.448090,120.453514 175.305130,122.213646 175.259781,125.006310 
	C175.178833,129.993027 175.237015,134.982010 175.237015,141.494354 
	C178.363983,135.794846 181.667496,131.990128 185.492920,128.634094 
	C187.041397,127.275612 186.907974,125.341347 186.921661,123.510742 
	C186.961563,118.178734 186.926544,112.845543 187.032440,107.515038 
	C187.065002,105.875305 187.171890,103.959412 189.505493,103.874443 
	C192.189087,103.776726 192.235321,105.809074 192.248642,107.683029 
	C192.284805,112.773064 192.261047,117.863525 192.261047,123.653969 
	C199.609268,121.209839 206.001587,119.094864 212.866470,118.593590 
	C244.877792,116.256149 276.021454,136.004257 286.460419,168.656677 
	C294.328247,193.266663 294.121582,217.871414 282.971710,241.647888 
	C274.384705,259.959167 259.235107,270.840698 240.582657,277.313446 
	C219.028931,284.792999 196.828003,285.093201 174.459427,282.814117 
	C167.395401,282.094330 160.215103,282.383331 152.454544,280.640167 
	C160.650314,269.629669 157.501114,257.334747 157.625916,245.621063 
	C157.970291,213.295654 157.801392,180.963928 157.695480,148.635147 
	C157.665436,139.464066 159.331497,129.930725 152.195343,121.312790 
	C158.864395,120.168015 164.632751,120.873138 170.823792,120.668396 
M192.261688,178.499969 
	C192.265228,210.796356 192.325256,243.092957 192.201660,275.388855 
	C192.186005,279.479858 193.434601,280.981964 197.615173,280.856598 
	C202.614944,280.706543 207.586548,280.399658 212.508835,279.642517 
	C238.007462,275.720062 257.179016,263.003693 267.572144,238.850327 
	C275.209717,221.100723 276.223602,202.412903 273.436371,183.525375 
	C271.030945,167.224854 265.334839,152.192612 253.184830,140.513596 
	C237.407074,125.347511 219.047852,119.207870 197.399536,125.850769 
	C193.700882,126.985718 192.130722,128.987000 192.188629,133.052094 
	C192.399612,147.865402 192.266144,162.683594 192.261688,178.499969 
M186.928619,181.500000 
	C186.928619,165.476013 186.928619,149.452026 186.928619,132.160126 
	C178.701202,139.136475 175.371033,146.876053 175.338852,155.878204 
	C175.197861,195.313873 175.239716,234.750214 175.239868,274.186310 
	C175.239883,279.776733 176.138672,280.295807 183.857986,280.185974 
	C188.647720,280.117767 186.833603,276.489807 186.842194,274.351257 
	C186.965103,243.734543 186.927170,213.117203 186.928619,181.500000 
z"/>
<path fill="#000000" opacity="1.000000" stroke="none" 
	d="
M324.813354,181.163635 
	C326.894531,181.952606 327.093018,183.373062 326.668121,184.943268 
	C325.755249,188.317047 326.894623,189.961975 330.350433,191.137283 
	C340.052551,194.436905 347.091858,207.250504 345.195038,217.320297 
	C344.971191,218.508499 344.775787,219.787537 343.334290,219.881073 
	C341.590240,219.994232 341.084534,218.546616 340.991486,217.211533 
	C340.702667,213.066986 340.756042,208.891647 339.153229,204.938828 
	C338.065002,202.255066 336.833710,199.863159 333.726532,198.883026 
	C327.481201,196.912994 325.019257,198.447372 324.343781,204.910110 
	C323.359039,214.331573 322.400787,223.756973 321.272308,233.161621 
	C320.836090,236.797073 321.882538,239.443726 324.653046,241.936035 
	C329.852631,246.613464 334.754395,251.616089 337.824829,258.093628 
	C342.008301,266.919250 341.987305,275.820923 338.044037,284.614441 
	C334.428619,292.676849 327.634186,296.678406 319.091400,297.165161 
	C315.203705,297.386658 313.708466,298.813019 313.385010,302.347229 
	C313.241150,303.918823 313.447815,306.207275 311.017120,305.910004 
	C308.774567,305.635681 309.008392,303.612976 309.438660,301.936005 
	C310.377655,298.276520 308.795288,296.619751 305.343292,295.415466 
	C296.966492,292.493073 290.263275,287.647675 288.160919,278.280121 
	C287.640259,275.960083 287.403931,273.589661 287.963745,271.353119 
	C288.467682,269.339996 287.926453,265.715424 291.187866,266.191742 
	C293.810913,266.574768 292.313812,269.588898 292.241119,271.384521 
	C291.790192,282.519440 295.985443,288.059540 306.432800,290.229919 
	C309.102356,290.784485 310.614929,290.413025 310.936676,287.452881 
	C312.174469,276.064880 313.457458,264.681763 314.731293,253.297699 
	C314.991638,250.971069 313.466217,249.679184 311.983948,248.292603 
	C306.622498,243.277191 301.621704,237.981400 297.704163,231.681274 
	C288.489746,216.862701 296.018188,193.211136 316.397736,190.526215 
	C320.438629,189.993835 322.950226,188.438446 322.722260,183.958130 
	C322.659241,182.719955 323.191772,181.689087 324.813354,181.163635 
M326.753204,277.119934 
	C329.056671,268.452789 326.626526,261.654419 318.818268,256.041870 
	C317.597809,267.199463 316.413544,278.026062 315.178375,289.317932 
	C321.541870,286.966156 323.864868,284.496338 326.753204,277.119934 
M317.633148,230.265610 
	C318.595062,220.523392 319.556976,210.781158 320.586670,200.352692 
	C313.561646,203.094955 310.189423,207.581299 309.258514,213.962830 
	C308.219910,221.082932 310.978180,226.976059 315.635315,232.075531 
	C316.686859,233.226929 317.248535,231.908234 317.633148,230.265610 
z"/>
</svg>