<svg version="1.1" id="Layer_1" xmlns="http://www.w3.org/2000/svg" xmlns:xlink="http://www.w3.org/1999/xlink" x="0px" y="0px"
	 width="100%" viewBox="0 0 224 216" enable-background="new 0 0 224 216" xml:space="preserve">
<path fill="#FEFEFE" opacity="1.000000" stroke="none" 
	d="
M225.000000,82.000000 
	C225.000000,127.333336 225.000000,172.166672 225.000000,217.000000 
	C150.333328,217.000000 75.666664,217.000000 1.000000,217.000000 
	C1.000000,145.000000 1.000000,73.000000 1.000000,1.000000 
	C75.666664,1.000000 150.333328,1.000000 225.000000,1.000000 
	C225.000000,27.833334 225.000000,54.666668 225.000000,82.000000 
M86.992989,184.423309 
	C90.734192,183.640884 94.525017,183.042053 98.208595,182.046448 
	C123.692688,175.158447 142.846725,160.915985 151.464432,135.035370 
	C157.220566,117.748573 157.347946,100.063065 154.013321,82.253632 
	C147.162598,45.665668 115.560753,20.131338 78.789688,22.145103 
	C71.492012,22.544758 64.311378,25.081446 56.792900,26.693529 
	C56.792900,20.622110 56.792900,14.030049 56.792900,7.086628 
	C55.197102,7.195883 54.021851,7.276345 52.717274,7.365662 
	C52.717274,14.092428 52.762619,20.418688 52.682919,26.743372 
	C52.664757,28.184763 52.690815,30.015221 51.881950,30.992191 
	C47.976131,35.709743 43.792072,40.196930 39.319122,45.199253 
	C39.319122,37.978748 39.319122,31.073183 39.319122,24.348614 
	C31.942118,24.348614 25.072290,24.348614 17.273102,24.348614 
	C23.757643,30.425398 23.201206,37.721611 23.213877,44.779907 
	C23.278759,80.931244 23.385950,117.083649 23.156319,153.233643 
	C23.090647,163.571915 25.575745,174.480148 17.748499,183.784973 
	C40.963634,184.918762 63.508335,188.496628 86.992989,184.423309 
M189.252502,104.026779 
	C189.909973,103.039932 190.368546,101.459633 191.256943,101.161911 
	C197.330826,99.126411 202.761353,101.755623 204.625275,107.926949 
	C205.715256,111.535751 205.881516,115.421478 206.494720,119.177490 
	C206.706177,120.472763 207.012543,121.752533 207.408676,123.690758 
	C214.450668,114.449921 205.446762,98.658340 190.612488,92.822594 
	C190.612488,90.048798 190.612488,87.128899 190.612488,84.209007 
	C190.161316,84.143127 189.710144,84.077248 189.258972,84.011368 
	C188.838989,85.270981 188.018112,86.547813 188.071320,87.787117 
	C188.259720,92.176399 186.330719,93.488670 182.000900,94.020439 
	C171.092773,95.360138 163.915405,101.585449 160.618103,112.257935 
	C156.729401,124.844597 161.063324,135.493317 170.199524,143.282745 
	C179.198380,150.955048 181.490692,159.169373 179.028900,170.197861 
	C177.281235,178.027145 176.979202,186.179108 175.889526,195.391006 
	C170.733017,193.321884 166.080521,192.248550 162.341370,189.787506 
	C154.828583,184.842712 156.702789,176.529373 157.107147,168.373428 
	C146.777039,177.153580 156.213562,192.426270 175.375519,199.885178 
	C175.375519,202.841415 175.375519,205.918442 175.375519,208.995468 
	C175.927795,209.066772 176.480087,209.138077 177.032364,209.209381 
	C177.647690,206.197052 178.263016,203.184723 178.864944,200.237915 
	C194.388702,199.125092 202.295349,193.399323 204.673828,181.202393 
	C206.362076,172.544968 205.304840,164.140961 199.755356,156.990540 
	C196.198898,152.408081 191.797256,148.487991 188.130646,143.981232 
	C186.774368,142.314178 185.608429,139.751740 185.772675,137.711731 
	C186.654343,126.761292 187.982788,115.846825 189.252502,104.026779 
z"/>
<path fill="#090909" opacity="1.000000" stroke="none" 
	d="
M86.570023,184.526947 
	C63.508335,188.496628 40.963634,184.918762 17.748499,183.784973 
	C25.575745,174.480148 23.090647,163.571915 23.156319,153.233643 
	C23.385950,117.083649 23.278759,80.931244 23.213877,44.779907 
	C23.201206,37.721611 23.757643,30.425398 17.273102,24.348614 
	C25.072290,24.348614 31.942118,24.348614 39.319122,24.348614 
	C39.319122,31.073183 39.319122,37.978748 39.319122,45.199253 
	C43.792072,40.196930 47.976131,35.709743 51.881950,30.992191 
	C52.690815,30.015221 52.664757,28.184763 52.682919,26.743372 
	C52.762619,20.418688 52.717274,14.092428 52.717274,7.365662 
	C54.021851,7.276345 55.197102,7.195883 56.792900,7.086628 
	C56.792900,14.030049 56.792900,20.622110 56.792900,26.693529 
	C64.311378,25.081446 71.492012,22.544758 78.789688,22.145103 
	C115.560753,20.131338 147.162598,45.665668 154.013321,82.253632 
	C157.347946,100.063065 157.220566,117.748573 151.464432,135.035370 
	C142.846725,160.915985 123.692688,175.158447 98.208595,182.046448 
	C94.525017,183.042053 90.734192,183.640884 86.570023,184.526947 
M56.768990,45.506889 
	C56.768990,91.613136 56.768990,137.719376 56.768990,184.054916 
	C61.525654,184.054916 65.834061,184.342087 70.093369,184.006332 
	C91.136093,182.347641 109.656799,175.240311 123.366066,158.368973 
	C133.349136,146.083282 138.079590,131.646027 139.527710,116.121216 
	C141.480804,95.183067 139.355759,74.866516 128.612686,56.223358 
	C115.330101,33.173241 89.365387,21.134453 66.131920,27.109243 
	C56.811794,29.506037 56.769024,29.560421 56.768997,39.012360 
	C56.768993,40.845394 56.768990,42.678425 56.768990,45.506889 
M39.473644,127.499771 
	C39.473644,145.925079 39.473644,164.350403 39.473644,183.082291 
	C44.118519,183.467331 48.294296,183.813492 52.459259,184.158752 
	C52.459259,133.682755 52.459259,84.049385 52.459259,34.416023 
	C52.064880,34.112282 51.670506,33.808537 51.276127,33.504795 
	C49.965096,35.168629 48.710384,36.880718 47.333363,38.488018 
	C41.120224,45.740177 39.434513,54.367424 39.457436,63.593685 
	C39.509525,84.562256 39.473755,105.531052 39.473644,127.499771 
z"/>
<path fill="#090909" opacity="1.000000" stroke="none" 
	d="
M189.204727,104.473358 
	C187.982788,115.846825 186.654343,126.761292 185.772675,137.711731 
	C185.608429,139.751740 186.774368,142.314178 188.130646,143.981232 
	C191.797256,148.487991 196.198898,152.408081 199.755356,156.990540 
	C205.304840,164.140961 206.362076,172.544968 204.673828,181.202393 
	C202.295349,193.399323 194.388702,199.125092 178.864944,200.237915 
	C178.263016,203.184723 177.647690,206.197052 177.032364,209.209381 
	C176.480087,209.138077 175.927795,209.066772 175.375519,208.995468 
	C175.375519,205.918442 175.375519,202.841415 175.375519,199.885178 
	C156.213562,192.426270 146.777039,177.153580 157.107147,168.373428 
	C156.702789,176.529373 154.828583,184.842712 162.341370,189.787506 
	C166.080521,192.248550 170.733017,193.321884 175.889526,195.391006 
	C176.979202,186.179108 177.281235,178.027145 179.028900,170.197861 
	C181.490692,159.169373 179.198380,150.955048 170.199524,143.282745 
	C161.063324,135.493317 156.729401,124.844597 160.618103,112.257935 
	C163.915405,101.585449 171.092773,95.360138 182.000900,94.020439 
	C186.330719,93.488670 188.259720,92.176399 188.071320,87.787117 
	C188.018112,86.547813 188.838989,85.270981 189.258972,84.011368 
	C189.710144,84.077248 190.161316,84.143127 190.612488,84.209007 
	C190.612488,87.128899 190.612488,90.048798 190.612488,92.822594 
	C205.446762,98.658340 214.450668,114.449921 207.408676,123.690758 
	C207.012543,121.752533 206.706177,120.472763 206.494720,119.177490 
	C205.881516,115.421478 205.715256,111.535751 204.625275,107.926949 
	C202.761353,101.755623 197.330826,99.126411 191.256943,101.161911 
	C190.368546,101.459633 189.909973,103.039932 189.204727,104.473358 
M192.801041,178.819214 
	C194.997772,169.653534 190.257553,163.508881 183.493835,157.118805 
	C182.100418,169.692642 180.813049,181.309494 179.503769,193.124115 
	C186.418350,191.427872 189.832794,187.774902 192.801041,178.819214 
M177.055710,131.340240 
	C178.578430,133.375320 180.101151,135.410400 182.445084,138.542999 
	C183.819214,125.746353 185.034393,114.429924 186.289093,102.745453 
	C185.027969,103.050560 184.187927,103.107597 183.483231,103.446281 
	C173.387939,108.298210 170.652313,119.355934 177.055710,131.340240 
z"/>
<path fill="#FEFEFE" opacity="1.000000" stroke="none" 
	d="
M56.768990,45.009174 
	C56.768990,42.678425 56.768993,40.845394 56.768997,39.012360 
	C56.769024,29.560421 56.811794,29.506037 66.131920,27.109243 
	C89.365387,21.134453 115.330101,33.173241 128.612686,56.223358 
	C139.355759,74.866516 141.480804,95.183067 139.527710,116.121216 
	C138.079590,131.646027 133.349136,146.083282 123.366066,158.368973 
	C109.656799,175.240311 91.136093,182.347641 70.093369,184.006332 
	C65.834061,184.342087 61.525654,184.054916 56.768990,184.054916 
	C56.768990,137.719376 56.768990,91.613136 56.768990,45.009174 
z"/>
<path fill="#F0F0F0" opacity="1.000000" stroke="none" 
	d="
M39.473671,126.999763 
	C39.473755,105.531052 39.509525,84.562256 39.457436,63.593685 
	C39.434513,54.367424 41.120224,45.740177 47.333363,38.488018 
	C48.710384,36.880718 49.965096,35.168629 51.276127,33.504795 
	C51.670506,33.808537 52.064880,34.112282 52.459259,34.416023 
	C52.459259,84.049385 52.459259,133.682755 52.459259,184.158752 
	C48.294296,183.813492 44.118519,183.467331 39.473644,183.082291 
	C39.473644,164.350403 39.473644,145.925079 39.473671,126.999763 
z"/>
<path fill="#F7F7F7" opacity="1.000000" stroke="none" 
	d="
M192.679718,179.222458 
	C189.832794,187.774902 186.418350,191.427872 179.503769,193.124115 
	C180.813049,181.309494 182.100418,169.692642 183.493835,157.118805 
	C190.257553,163.508881 194.997772,169.653534 192.679718,179.222458 
z"/>
<path fill="#F6F6F6" opacity="1.000000" stroke="none" 
	d="
M176.885986,131.007507 
	C170.652313,119.355934 173.387939,108.298210 183.483231,103.446281 
	C184.187927,103.107597 185.027969,103.050560 186.289093,102.745453 
	C185.034393,114.429924 183.819214,125.746353 182.445084,138.542999 
	C180.101151,135.410400 178.578430,133.375320 176.885986,131.007507 
z"/>
</svg>